<svg width="68" height="60" viewBox="0 0 68 60" fill="none" xmlns="http://www.w3.org/2000/svg">
<path d="M47.2478 31.4608C47.0183 31.9252 46.7163 32.345 46.3534 32.7132L34.349 45.0168C34.1406 45.3077 33.7824 45.4906 33.389 45.4906C32.9957 45.4906 32.6351 45.3077 32.4033 44.9864L20.42 32.7109C20.3615 32.6546 20.2983 32.5866 20.2397 32.5186C18.9847 31.109 18.7436 29.0733 19.6286 27.3377L32.2956 2.47247C32.5414 2.09018 32.9442 1.8744 33.389 1.8744C33.8339 1.8744 34.2343 2.08783 34.4684 2.44667L40.8171 14.911L47.1658 27.3752C47.8331 28.6816 47.8636 30.2107 47.2478 31.4608ZM33.773 53.0144L2.1454 20.8013L2.04472 20.6981C1.81058 20.5104 1.54132 20.4143 1.25098 20.4143C0.827189 20.4307 0.454906 20.616 0.225449 20.9209C0.0100404 21.207 -0.0531774 21.5776 0.0451614 21.9716L9.2492 53.7016C9.4693 54.4592 9.82519 55.1628 10.3145 55.7866C10.3731 55.8664 10.4386 55.9438 10.5019 56.0188C11.5953 57.2876 13.2436 57.9842 14.9529 57.9842C15.6155 57.9842 16.2875 57.881 16.9384 57.6605C21.6774 56.0892 26.6388 55.2073 31.6962 55.0455C32.1247 55.0127 32.5508 54.9869 32.9746 54.9658C33.3258 54.947 33.6513 54.7781 33.862 54.5037C34.0704 54.2364 34.15 53.8986 34.0868 53.5726C34.047 53.378 33.9416 53.1903 33.7754 53.0168L33.773 53.0144ZM66.2201 20.6136C65.8198 20.3392 65.3093 20.3556 64.7755 20.6746L64.6444 20.7544L37.449 48.502C36.9971 48.9617 36.9948 49.6841 37.4443 50.1437L42.1833 54.9986C42.7453 55.5755 43.4664 55.9696 44.2742 56.1408C46.4236 56.5934 48.5566 57.1891 50.6171 57.9091C51.0947 58.0757 51.5934 58.1578 52.0945 58.1578C52.7149 58.1578 53.3354 58.0311 53.9278 57.7778C54.9486 57.3603 55.8314 56.7013 56.4799 55.8687C56.9646 55.2472 57.3252 54.5436 57.5476 53.779L66.754 22.0349C66.7914 21.8871 66.8055 21.7394 66.7938 21.6127C66.7938 21.2093 66.5784 20.8341 66.2201 20.6089V20.6136Z" fill="url(#throne_gradient)"/>
<defs>
  <linearGradient id="throne_gradient" x1="9.8121" y1="58.1578" x2="53.995" y2="13.6782" gradientUnits="userSpaceOnUse">
    <stop stop-color="#4CA6FF"/>
    <stop offset="0.276959" stop-color="#4D4DFF"/>
    <stop offset="0.491704" stop-color="#990AFF"/>
    <stop offset="0.642891" stop-color="#D21EB4"/>
    <stop offset="1" stop-color="#FFC400"/>
  </linearGradient>
</defs>
</svg>
